<mxfile host="app.diagrams.net" modified="2024-06-17T01:25:21.348Z" agent="Mozilla/5.0 (Windows NT 10.0; Win64; x64) AppleWebKit/537.36 (KHTML, like Gecko) Chrome/125.0.0.0 Safari/537.36" etag="nc_WVy5K9DvFbkAaJiCm" version="24.5.4" type="github">
  <diagram name="Page-1" id="c7488fd3-1785-93aa-aadb-54a6760d102a">
    <mxGraphModel dx="1160" dy="1087" grid="0" gridSize="10" guides="1" tooltips="1" connect="1" arrows="1" fold="1" page="0" pageScale="1" pageWidth="1100" pageHeight="850" background="none" math="0" shadow="0">
      <root>
        <mxCell id="0" />
        <mxCell id="1" parent="0" />
        <mxCell id="2b4e8129b02d487f-32" value="No" style="edgeStyle=orthogonalEdgeStyle;rounded=0;html=1;labelBackgroundColor=none;startArrow=none;startFill=0;startSize=5;endArrow=classicThin;endFill=1;endSize=5;jettySize=auto;orthogonalLoop=1;strokeWidth=1;fontFamily=Verdana;fontSize=8" parent="1" source="2b4e8129b02d487f-15" edge="1">
          <mxGeometry x="-0.9529" y="15" relative="1" as="geometry">
            <Array as="points">
              <mxPoint x="604" y="505" />
              <mxPoint x="414" y="505" />
            </Array>
            <mxPoint as="offset" />
            <mxPoint x="414" y="322" as="targetPoint" />
          </mxGeometry>
        </mxCell>
        <mxCell id="X7l-tvRHpJtHz-ZMr7ec-15" value="" style="rounded=0;whiteSpace=wrap;html=1;" vertex="1" parent="1">
          <mxGeometry x="325" y="-241" width="735" height="476" as="geometry" />
        </mxCell>
        <mxCell id="X7l-tvRHpJtHz-ZMr7ec-16" value="首页" style="rounded=0;whiteSpace=wrap;html=1;" vertex="1" parent="1">
          <mxGeometry x="352" y="-200" width="115" height="35" as="geometry" />
        </mxCell>
        <mxCell id="X7l-tvRHpJtHz-ZMr7ec-17" value="电视频道" style="rounded=0;whiteSpace=wrap;html=1;" vertex="1" parent="1">
          <mxGeometry x="488" y="-200" width="118" height="35" as="geometry" />
        </mxCell>
        <mxCell id="X7l-tvRHpJtHz-ZMr7ec-18" value="本地应用" style="rounded=0;whiteSpace=wrap;html=1;" vertex="1" parent="1">
          <mxGeometry x="624" y="-200" width="120" height="35" as="geometry" />
        </mxCell>
        <mxCell id="X7l-tvRHpJtHz-ZMr7ec-19" value="Youtube" style="rounded=0;whiteSpace=wrap;html=1;" vertex="1" parent="1">
          <mxGeometry x="760" y="-200" width="120" height="35" as="geometry" />
        </mxCell>
        <mxCell id="X7l-tvRHpJtHz-ZMr7ec-20" value="生活咨询" style="rounded=0;whiteSpace=wrap;html=1;" vertex="1" parent="1">
          <mxGeometry x="905" y="-200" width="120" height="35" as="geometry" />
        </mxCell>
        <mxCell id="X7l-tvRHpJtHz-ZMr7ec-21" value="搜索" style="ellipse;whiteSpace=wrap;html=1;" vertex="1" parent="1">
          <mxGeometry x="334" y="-237" width="40" height="27" as="geometry" />
        </mxCell>
        <mxCell id="X7l-tvRHpJtHz-ZMr7ec-22" value="设置" style="ellipse;whiteSpace=wrap;html=1;" vertex="1" parent="1">
          <mxGeometry x="387" y="-237" width="40" height="27" as="geometry" />
        </mxCell>
        <mxCell id="X7l-tvRHpJtHz-ZMr7ec-24" value="用户" style="ellipse;whiteSpace=wrap;html=1;" vertex="1" parent="1">
          <mxGeometry x="440" y="-237" width="40" height="27" as="geometry" />
        </mxCell>
        <mxCell id="X7l-tvRHpJtHz-ZMr7ec-25" value="天气信息" style="rounded=1;whiteSpace=wrap;html=1;" vertex="1" parent="1">
          <mxGeometry x="872" y="-234" width="120" height="21" as="geometry" />
        </mxCell>
        <mxCell id="X7l-tvRHpJtHz-ZMr7ec-27" value="" style="endArrow=none;html=1;rounded=0;exitX=0.002;exitY=0.073;exitDx=0;exitDy=0;exitPerimeter=0;entryX=0.999;entryY=0.069;entryDx=0;entryDy=0;entryPerimeter=0;" edge="1" parent="1" source="X7l-tvRHpJtHz-ZMr7ec-15" target="X7l-tvRHpJtHz-ZMr7ec-15">
          <mxGeometry width="50" height="50" relative="1" as="geometry">
            <mxPoint x="676" y="12" as="sourcePoint" />
            <mxPoint x="726" y="-38" as="targetPoint" />
          </mxGeometry>
        </mxCell>
        <mxCell id="X7l-tvRHpJtHz-ZMr7ec-28" value="" style="endArrow=none;html=1;rounded=0;exitX=0.002;exitY=0.073;exitDx=0;exitDy=0;exitPerimeter=0;entryX=0.999;entryY=0.069;entryDx=0;entryDy=0;entryPerimeter=0;" edge="1" parent="1">
          <mxGeometry width="50" height="50" relative="1" as="geometry">
            <mxPoint x="327" y="-158" as="sourcePoint" />
            <mxPoint x="1060" y="-160" as="targetPoint" />
          </mxGeometry>
        </mxCell>
        <mxCell id="X7l-tvRHpJtHz-ZMr7ec-29" value="咨询推荐" style="rounded=1;whiteSpace=wrap;html=1;" vertex="1" parent="1">
          <mxGeometry x="355" y="-137" width="406" height="154" as="geometry" />
        </mxCell>
        <mxCell id="X7l-tvRHpJtHz-ZMr7ec-31" value="热点信息" style="whiteSpace=wrap;html=1;aspect=fixed;" vertex="1" parent="1">
          <mxGeometry x="851" y="-137" width="152" height="152" as="geometry" />
        </mxCell>
        <mxCell id="X7l-tvRHpJtHz-ZMr7ec-32" value="常用程序" style="rounded=1;whiteSpace=wrap;html=1;" vertex="1" parent="1">
          <mxGeometry x="334" y="49" width="94" height="31" as="geometry" />
        </mxCell>
        <mxCell id="X7l-tvRHpJtHz-ZMr7ec-33" value="应用1" style="rounded=1;whiteSpace=wrap;html=1;" vertex="1" parent="1">
          <mxGeometry x="365" y="103" width="123" height="94" as="geometry" />
        </mxCell>
        <mxCell id="X7l-tvRHpJtHz-ZMr7ec-34" value="应用2" style="rounded=1;whiteSpace=wrap;html=1;" vertex="1" parent="1">
          <mxGeometry x="544" y="103" width="123" height="94" as="geometry" />
        </mxCell>
        <mxCell id="X7l-tvRHpJtHz-ZMr7ec-35" value="应用3" style="rounded=1;whiteSpace=wrap;html=1;" vertex="1" parent="1">
          <mxGeometry x="719" y="103" width="123" height="94" as="geometry" />
        </mxCell>
        <mxCell id="X7l-tvRHpJtHz-ZMr7ec-36" value="应用4" style="rounded=1;whiteSpace=wrap;html=1;" vertex="1" parent="1">
          <mxGeometry x="891" y="103" width="123" height="94" as="geometry" />
        </mxCell>
      </root>
    </mxGraphModel>
  </diagram>
</mxfile>
